<svg width="20" height="25" viewBox="0 0 20 25" fill="none" xmlns="http://www.w3.org/2000/svg">
<path fill-rule="evenodd" clip-rule="evenodd" d="M2.96851 6.20417L1.87524 21.1125C1.79554 22.1993 2.65341 23.125 3.7402 23.125H16.2598C17.3466 23.125 18.2044 22.1993 18.1248 21.1125L17.0317 6.20418C17.0077 5.87766 16.7365 5.625 16.41 5.625H14.9811L14.9812 8.74993L13.1113 8.75L13.1111 5.625H6.88365L6.88352 8.75L5.01352 8.74992L5.01365 5.625H3.59017C3.26364 5.625 2.99246 5.87765 2.96851 6.20417ZM5.01373 3.75H3.59017C2.28408 3.75 1.19933 4.76061 1.10355 6.06667L0.0102731 20.975C-0.149119 23.1485 1.56662 25 3.7402 25H16.2598C18.4334 25 20.1491 23.1486 19.9897 20.975L18.8966 6.0667C18.8009 4.76063 17.7161 3.75 16.41 3.75H14.981L14.981 3.43735C14.9809 1.53893 13.4461 0 11.5527 0H8.44207C6.54872 0 5.01382 1.53893 5.01374 3.43736L5.01373 3.75ZM6.88373 3.75L6.88374 3.43744C6.88378 2.57452 7.58146 1.875 8.44207 1.875H11.5527C12.4133 1.875 13.111 2.57452 13.111 3.43743L13.111 3.75H6.88373Z" fill="#E8E9EA"/>
</svg>
