<svg width="13" height="22" viewBox="0 0 13 22" fill="none" xmlns="http://www.w3.org/2000/svg">
<path d="M11.6188 0.130289L0.613086 11.1103C0.556444 11.1664 0.519107 11.236 0.505616 11.3109C0.492125 11.3857 0.503063 11.4624 0.537105 11.5318C0.571148 11.6011 0.626822 11.66 0.697341 11.7013C0.76786 11.7426 0.850179 11.7645 0.934271 11.7643H3.74184C3.81094 11.7643 3.87904 11.7792 3.94047 11.8077C4.0019 11.8362 4.05487 11.8775 4.09498 11.9283C4.13509 11.979 4.16117 12.0376 4.17104 12.0993C4.18092 12.1609 4.1743 12.2238 4.15175 12.2827L0.649024 21.48C0.615843 21.5653 0.616513 21.6583 0.650916 21.7433C0.685319 21.8282 0.751326 21.8997 0.837692 21.9457C0.924058 21.9917 1.02544 22.0092 1.12455 21.9954C1.22366 21.9815 1.31438 21.9371 1.38124 21.8697L12.3869 10.8897C12.4436 10.8336 12.4809 10.764 12.4944 10.6891C12.5079 10.6143 12.4969 10.5376 12.4629 10.4682C12.4289 10.3989 12.3732 10.34 12.3027 10.2987C12.2321 10.2574 12.1498 10.2355 12.0657 10.2357H9.25816C9.18906 10.2357 9.12096 10.2208 9.05953 10.1923C8.9981 10.1638 8.94513 10.1224 8.90502 10.0717C8.86491 10.021 8.83883 9.96239 8.82896 9.90074C8.81908 9.8391 8.8257 9.77621 8.84825 9.71734L12.351 0.520045C12.3842 0.434721 12.3835 0.341666 12.3491 0.256735C12.3147 0.171805 12.2487 0.100258 12.1623 0.054285C12.0759 0.00831229 11.9746 -0.00924032 11.8755 0.0046186C11.7763 0.0184775 11.6856 0.0628915 11.6188 0.130289Z" fill="#FFA500"/>
</svg>
