<svg width="23" height="22" viewBox="0 0 23 22" fill="none" xmlns="http://www.w3.org/2000/svg">
<path d="M12.7764 2.55274C12.7764 1.44817 13.6718 0.552734 14.7764 0.552734H19.7237C20.8283 0.552734 21.7237 1.44816 21.7237 2.55273V7.5001C21.7237 8.60467 20.8283 9.5001 19.7237 9.5001H14.7764C13.6718 9.5001 12.7764 8.60467 12.7764 7.5001V2.55274Z" fill="white"/>
<path d="M9.77637 2.55274C9.77637 1.44817 8.88094 0.552734 7.77637 0.552734H2.829C1.72443 0.552734 0.828999 1.44816 0.828999 2.55273V7.5001C0.828999 8.60467 1.72443 9.5001 2.829 9.5001H7.77637C8.88094 9.5001 9.77637 8.60467 9.77637 7.5001V2.55274Z" fill="white"/>
<path d="M13.2236 19.4475C13.2236 20.5521 14.1191 21.4475 15.2236 21.4475H20.171C21.2756 21.4475 22.171 20.5521 22.171 19.4475V14.5001C22.171 13.3956 21.2756 12.5001 20.171 12.5001H15.2236C14.1191 12.5001 13.2236 13.3956 13.2236 14.5001V19.4475Z" fill="white"/>
<path d="M10.2236 19.4475C10.2236 20.5521 9.3282 21.4475 8.22363 21.4475H3.27627C2.1717 21.4475 1.27626 20.5521 1.27626 19.4475V14.5001C1.27626 13.3956 2.17169 12.5001 3.27626 12.5001H8.22363C9.3282 12.5001 10.2236 13.3956 10.2236 14.5001V19.4475Z" fill="white"/>
</svg>
