<svg width="126" height="109" viewBox="0 0 126 109" fill="none" xmlns="http://www.w3.org/2000/svg">
<path d="M122.202 24.1821L67.01 0.739067C65.8546 0.251302 64.6131 0 63.359 0C62.1048 0 60.8633 0.251302 59.7079 0.739067L3.68796 24.1903C2.59369 24.653 1.66017 25.428 1.00419 26.4186C0.348214 27.4091 -0.00108431 28.5711 7.58958e-06 29.7591V69.0358C-0.00188623 70.2299 0.35068 71.3977 1.01305 72.3912C1.67541 73.3848 2.61777 74.1594 3.72074 74.6169L58.5196 97.2199H58.5687L63.3631 99.2032L86.0235 108.546L76.7913 93.5893L122.174 74.6169C123.272 74.1567 124.21 73.3822 124.87 72.3907C125.53 71.3992 125.882 70.2349 125.882 69.044V29.7059C125.875 28.5264 125.523 27.3749 124.869 26.3933C124.215 25.4117 123.288 24.643 122.202 24.1821Z" fill="#462B74"/>
</svg>
